# xmcd CD database file
#
# Track frame offsets:
#	150
#	11230
#	21617
#	33565
#	46212
#	55857
#	68935
#	80592
#	94992
#	107260
#	121922
#	134177
#	148030
#	161552
#	176232
#	188097
#	198845
#	209252
#	223257
#	236675
#	251507
#	266927
#	277142
#	289045
#	299225
#	313142
#	328335
#
# Disc length: 4483 seconds
#
# Revision: 4
# Processed by: cddbd v1.5.2PL0 Copyright (c) Steve Scherf et al.
# Submitted via: CDex 1.70beta2
#
DISCID=c211811b
DTITLE=Various Artist - You're Only Young Twice
DYEAR=1995
DGENRE=Doo Wop
TTITLE0=The Blue Emotions - Doo-Wop All Night Long
TTITLE1=The Jive Five - Here I Am
TTITLE2=The Capris - Morse Code of Love
TTITLE3=The Harpones - My One and Only Love
TTITLE4=The Mystics - Chills and Fever
TTITLE5=Johnnie and Joe - The Kindom Of Love
TTITLE6=The Blue Emotions - O My Elaine
TTITLE7=Randy and The Rainbows - In Your Letter
TTITLE8=The Capris - That's How Love Goes
TTITLE9=The Jive Five - Don't Believe Him Donna
TTITLE10=The Mystics - Crazy For You
TTITLE11=The Blue Emotions - Ring-A-Ling
TTITLE12=The Harptones - If I Give My Heart to You
TTITLE13=Randy and The Rainbows - Try The Impossible
TTITLE14=The Jive Five feat. Eugene Pitt - He's Just a Lucky Man
TTITLE15=Johnnie and Joe and The Jive Five - True Love
TTITLE16=The Capris - Guardian Angel
TTITLE17=The Jive Five - Hey Nineteen
TTITLE18=Randy and The Rainbows - No Love
TTITLE19=The Harptones - When Your Love Has Said Goodbye
TTITLE20=The Jive Five - Never, Never Lied
TTITLE21=The Blue Emotions - Sincerely
TTITLE22=The Mystics - Prayer to An Angel
TTITLE23=The Capris - A Love of My Own
TTITLE24=The Harptones - It's You
TTITLE25=The Jive Five - Hey Sam
TTITLE26=The Blue Emotions - Doo-Wop All Night Long Again
EXTD=YEAR: 1995
EXTT0=
EXTT1=
EXTT2=
EXTT3=
EXTT4=
EXTT5=
EXTT6=
EXTT7=
EXTT8=
EXTT9=
EXTT10=
EXTT11=
EXTT12=
EXTT13=
EXTT14=
EXTT15=
EXTT16=
EXTT17=
EXTT18=
EXTT19=
EXTT20=
EXTT21=
EXTT22=
EXTT23=
EXTT24=
EXTT25=
EXTT26=
PLAYORDER=
